HIERARCHY
ROOT Hips
{
	OFFSET 0.00000 0.00000 0.00000
	CHANNELS 6 Xposition Yposition Zposition Zrotation Yrotation Xrotation 
	JOINT LHipJoint
	{
		OFFSET 0 0 0
		CHANNELS 3 Zrotation Yrotation Xrotation
		JOINT LeftUpLeg
		{
			OFFSET 1.56857 -1.73443 1.15205
			CHANNELS 3 Zrotation Yrotation Xrotation
			JOINT LeftLeg
			{
				OFFSET 2.39362 -6.57643 0.00000
				CHANNELS 3 Zrotation Yrotation Xrotation
				JOINT LeftFoot
				{
					OFFSET 2.50952 -6.89485 0.00000
					CHANNELS 3 Zrotation Yrotation Xrotation
					JOINT LeftToeBase
					{
						OFFSET 0.17171 -0.47178 1.88682
						CHANNELS 3 Zrotation Yrotation Xrotation
						End Site
						{
							OFFSET 0.00000 -0.00000 0.98146
						}
					}
				}
			}
		}
	}
	JOINT RHipJoint
	{
		OFFSET 0 0 0
		CHANNELS 3 Zrotation Yrotation Xrotation
		JOINT RightUpLeg
		{
			OFFSET -1.28153 -1.73443 1.15205
			CHANNELS 3 Zrotation Yrotation Xrotation
			JOINT RightLeg
			{
				OFFSET -2.26861 -6.23296 0.00000
				CHANNELS 3 Zrotation Yrotation Xrotation
				JOINT RightFoot
				{
					OFFSET -2.54143 -6.98254 0.00000
					CHANNELS 3 Zrotation Yrotation Xrotation
					JOINT RightToeBase
					{
						OFFSET -0.23309 -0.64041 1.93119
						CHANNELS 3 Zrotation Yrotation Xrotation
						End Site
						{
							OFFSET -0.00000 -0.00000 1.02013
						}
					}
				}
			}
		}
	}
	JOINT LowerBack
	{
		OFFSET 0 0 0
		CHANNELS 3 Zrotation Yrotation Xrotation
		JOINT Spine
		{
			OFFSET -0.07096 2.10460 -0.27878
			CHANNELS 3 Zrotation Yrotation Xrotation
			JOINT Spine1
			{
				OFFSET -0.00826 2.13662 -0.08279
				CHANNELS 3 Zrotation Yrotation Xrotation
				JOINT Neck
				{
					OFFSET 0 0 0
					CHANNELS 3 Zrotation Yrotation Xrotation
					JOINT Neck1
					{
						OFFSET 0.03239 1.77799 0.24435
						CHANNELS 3 Zrotation Yrotation Xrotation
						JOINT Head
						{
							OFFSET 0.01026 1.74194 -0.49664
							CHANNELS 3 Zrotation Yrotation Xrotation
							End Site
							{
								OFFSET 0.00170 1.83057 -0.19653
							}
						}
					}
				}
				JOINT LeftShoulder
				{
					OFFSET 0 0 0
					CHANNELS 3 Zrotation Yrotation Xrotation
					JOINT LeftArm
					{
						OFFSET 3.19178 1.35907 -0.31412
						CHANNELS 3 Zrotation Yrotation Xrotation
						JOINT LeftForeArm
						{
							OFFSET 4.85247 -0.00000 -0.00000
							CHANNELS 3 Zrotation Yrotation Xrotation
							JOINT LeftHand
							{
								OFFSET 3.55584 -0.00000 0.00000
								CHANNELS 3 Zrotation Yrotation Xrotation
								JOINT LeftFingerBase
								{
									OFFSET 0 0 0
									CHANNELS 3 Zrotation Yrotation Xrotation
									JOINT LeftHandIndex1
									{
										OFFSET 0.69320 -0.00000 0.00000
										CHANNELS 3 Zrotation Yrotation Xrotation
										End Site
										{
											OFFSET 0.55888 -0.00000 0.00000
										}
									}
								}
								JOINT LThumb
								{
									OFFSET 0 0 0
									CHANNELS 3 Zrotation Yrotation Xrotation
									End Site
									{
										OFFSET 0.56741 -0.00000 0.56741
									}
								}
							}
						}
					}
				}
				JOINT RightShoulder
				{
					OFFSET 0 0 0
					CHANNELS 3 Zrotation Yrotation Xrotation
					JOINT RightArm
					{
						OFFSET -3.28999 1.24191 -0.26899
						CHANNELS 3 Zrotation Yrotation Xrotation
						JOINT RightForeArm
						{
							OFFSET -4.64462 -0.00000 0.00000
							CHANNELS 3 Zrotation Yrotation Xrotation
							JOINT RightHand
							{
								OFFSET -3.40703 -0.00000 0.00000
								CHANNELS 3 Zrotation Yrotation Xrotation
								JOINT RightFingerBase
								{
									OFFSET 0 0 0
									CHANNELS 3 Zrotation Yrotation Xrotation
									JOINT RightHandIndex1
									{
										OFFSET -0.61958 -0.00000 0.00000
										CHANNELS 3 Zrotation Yrotation Xrotation
										End Site
										{
											OFFSET -0.49952 -0.00000 0.00000
										}
									}
								}
								JOINT RThumb
								{
									OFFSET 0 0 0
									CHANNELS 3 Zrotation Yrotation Xrotation
									End Site
									{
										OFFSET -0.50715 -0.00000 0.50715
									}
								}
							}
						}
					}
				}
			}
		}
	}
}
MOTION
Frames: 14
Frame Time: .0083333
-28.2199 17.0561 1.244 0 0 0 0 0 0 -21 0 0 0 0 0 0 0 0 0 0 0 0 0 0 21 0 0 0 0 0 0 0 0 0 0 0 0 0 0 0 0 0 0 0 0 0 0 -16 0 0 21 0 0 11 0 0 0 -8 0 0 0 0 0 0 0 0 0 0 0 0 0 0 0 0 0 0 0 0 8 0 0 0 0 0 0 0 0 0 0 0 0 0 0 0 0 0
-28.2199 17.0561 1.2440 54.8552 85.4124 53.5633 0.0000 0.0000 0.0000 -20.6694 5.5736 10.4121 0.0120 -0.7078 -1.9453 0.2387 6.1142 -13.4598 0.1527 -2.5177 -6.9386 0.0000 0.0000 0.0000 10.4855 -9.0970 8.4587 -0.0129 -0.7323 2.0124 -0.8834 1.9468 -17.2103 -0.6729 -5.2453 14.6096 -6.6979 1.9968 4.6925 -1.1529 2.2776 -0.2031 2.3891 1.2393 -3.0595 5.1963 2.3337 -21.5755 -2.4716 2.3511 23.4412 -1.3867 1.2806 11.2874 0.0000 -0.0000 0.0000 -0.0000 0.0000 -0.0000 -0.0000 0.0000 -0.0000 -0.0000 0.0000 0.0000 -0.0000 -0.0000 0.0000 -0.0000 -0.0000 0.0000 -0.0000 0.0000 0.0000 0.0000 -0.0000 0.0000 0.0000 -0.0000 -0.0000 0.0000 -0.0000 -0.0000 0.0000 0.0000 0.0000 0.0000 0.0000 0.0000 0.0000 0.0000 0.0000 0.0000 -0.0000 0.0000
-28.2249 17.0567 1.2437 54.8534 85.6256 53.5686 0.0000 0.0000 0.0000 -20.4772 5.4475 10.4146 0.0109 -0.6743 -1.8530 0.2675 5.7671 -13.5795 0.0668 -1.6678 -4.5885 0.0000 0.0000 0.0000 10.6584 -9.3461 8.2956 -0.0145 -0.7783 2.1391 -0.8910 2.1030 -17.2517 -0.6549 -5.1761 14.4114 -6.7532 1.8936 4.8484 -0.9247 2.1227 -0.2894 2.6621 1.1703 -3.2338 5.0940 2.4249 -21.3234 -2.5811 2.5628 23.3834 -1.3771 1.3553 11.2264 -0.0000 0.0000 0.0000 -0.0000 0.0000 -0.0000 -0.0000 0.0000 -0.0000 -0.0000 0.0000 0.0000 -0.0000 -0.0000 0.0000 -0.0000 -0.0000 0.0000 -0.0000 0.0000 0.0000 -0.0000 0.0000 0.0000 0.0000 -0.0000 -0.0000 0.0000 -0.0000 -0.0000 0.0000 0.0000 0.0000 0.0000 0.0000 0.0000 0.0000 0.0000 0.0000 0.0000 -0.0000 0.0000
-28.2276 17.0580 1.2440 53.8474 85.7660 52.6061 0.0000 0.0000 0.0000 -20.2886 5.3782 10.3760 0.0111 -0.6791 -1.8662 0.2722 5.8024 -13.6833 0.0621 -1.6081 -4.4238 0.0000 0.0000 0.0000 10.8918 -9.2891 8.2392 -0.0148 -0.7858 2.1597 -0.8977 2.0111 -17.3390 -0.6549 -5.1763 14.4120 -6.6973 1.8506 4.8760 -0.8111 2.0657 -0.3349 2.7518 1.1439 -3.2934 5.0836 2.4585 -21.2687 -2.6185 2.6292 23.3981 -1.3788 1.3807 11.2248 0.0000 0.0000 0.0000 -0.0000 0.0000 -0.0000 -0.0000 0.0000 -0.0000 -0.0000 0.0000 0.0000 -0.0000 -0.0000 0.0000 -0.0000 -0.0000 0.0000 -0.0000 0.0000 0.0000 0.0000 0.0000 0.0000 0.0000 -0.0000 -0.0000 0.0000 -0.0000 -0.0000 0.0000 0.0000 0.0000 0.0000 0.0000 0.0000 0.0000 0.0000 0.0000 0.0000 -0.0000 0.0000
-28.2282 17.0602 1.2443 54.6192 85.7159 53.3787 0.0000 0.0000 0.0000 -20.3468 5.4801 10.3117 0.0110 -0.6768 -1.8600 0.2676 5.8022 -13.6120 0.0922 -1.9588 -5.3919 0.0000 0.0000 0.0000 10.8147 -9.2860 8.2394 -0.0147 -0.7836 2.1534 -0.8966 1.9875 -17.3336 -0.6413 -5.1233 14.2605 -6.7553 1.8573 4.8854 -0.8527 2.0702 -0.3310 2.7404 1.1471 -3.2957 5.0713 2.4508 -21.3367 -2.5584 2.6043 23.4682 -1.3585 1.3763 11.2621 -0.0000 0.0000 0.0000 -0.0000 0.0000 -0.0000 -0.0000 0.0000 -0.0000 -0.0000 0.0000 0.0000 -0.0000 -0.0000 0.0000 -0.0000 -0.0000 0.0000 -0.0000 0.0000 0.0000 -0.0000 0.0000 0.0000 0.0000 -0.0000 -0.0000 0.0000 -0.0000 -0.0000 0.0000 0.0000 0.0000 0.0000 0.0000 0.0000 0.0000 0.0000 0.0000 0.0000 -0.0000 0.0000
-28.2280 17.0602 1.2454 55.0621 85.6971 53.8119 0.0000 0.0000 0.0000 -20.3623 5.5338 10.3120 0.0110 -0.6787 -1.8653 0.2686 5.7476 -13.5777 0.0932 -1.9694 -5.4211 0.0000 0.0000 0.0000 10.7796 -9.2720 8.2588 -0.0146 -0.7789 2.1406 -0.8948 2.0034 -17.3118 -0.6499 -5.1567 14.3561 -6.7544 1.8712 4.8822 -0.9021 2.0891 -0.3145 2.6875 1.1554 -3.2766 5.0426 2.4473 -21.4111 -2.4536 2.5770 23.5228 -1.3192 1.3749 11.2939 -0.0000 -0.0000 0.0000 -87.2178 2.0191 37.5611 12.1576 -20.0406 -2.1560 -0.0000 -0.0000 13.5455 15.6951 -22.3153 -6.0901 -7.1250 0.0000 -0.0000 -8.2756 7.0884 7.2693 -0.0000 -0.0000 0.0000 0.0000 -0.0000 -0.0000 0.0000 -0.0000 -0.0000 0.0000 0.0000 0.0000 0.0000 0.0000 0.0000 0.0000 0.0000 0.0000 0.0000 -0.0000 0.0000
-28.2284 17.0587 1.2467 52.9139 85.8658 51.6826 0.0000 0.0000 0.0000 -20.1576 5.2619 10.4624 0.0123 -0.7155 -1.9663 0.2552 6.0479 -13.6511 0.0875 -1.9078 -5.2509 0.0000 0.0000 0.0000 11.1080 -9.1322 8.2825 -0.0141 -0.7675 2.1092 -0.8980 1.9329 -17.3597 -0.6961 -5.3333 14.8617 -6.5055 1.8688 4.8416 -0.8566 2.1041 -0.3075 2.5960 1.1573 -3.2402 4.9990 2.4550 -21.4322 -2.3656 2.5773 23.5347 -1.2794 1.3824 11.3006 0.0000 0.0000 0.0000 -87.2660 1.9209 36.4686 11.6408 -19.2638 -1.9822 -0.0000 -0.0000 15.4635 16.4124 -24.9658 -7.0868 -7.1250 0.0000 -0.0000 -7.9993 4.3050 7.4506 0.0000 0.0000 0.0000 87.7381 -6.5290 35.0618 -16.6342 26.3730 -3.9235 0.0000 0.0000 3.3905 -9.5191 -32.8852 5.2022 7.1250 -0.0000 -0.0000 26.8506 -61.1941 -11.0381
-28.2283 17.0575 1.2458 52.5625 85.8999 51.3511 0.0000 0.0000 0.0000 -20.2876 4.7677 10.7355 0.0150 -0.7921 -2.1769 0.2269 6.5985 -13.7517 0.1059 -2.0983 -5.7775 0.0000 0.0000 0.0000 11.1525 -9.1524 8.2529 -0.0142 -0.7697 2.1152 -0.8965 1.9390 -17.3437 -0.7067 -5.3729 14.9753 -6.4629 1.8547 4.8167 -0.8268 2.0897 -0.3158 2.6050 1.1494 -3.2329 4.9653 2.4557 -21.4367 -2.3691 2.5913 23.5499 -1.2729 1.3854 11.3073 0.0000 0.0000 0.0000 -87.3039 2.0193 37.4035 12.1613 -20.0461 -2.1573 -0.0000 -0.0000 13.6235 15.5414 -22.1820 -5.9940 -7.1250 0.0000 -0.0000 -8.3651 7.2431 7.3242 0.0000 0.0000 0.0000 87.6963 -6.5524 35.0922 -16.6294 26.3666 -3.9213 0.0000 0.0000 3.6626 -9.6325 -32.8453 5.2594 7.1250 -0.0000 -0.0000 26.6954 -61.1866 -10.9643
-28.2261 17.0560 1.2426 54.6475 85.7415 53.4658 0.0000 0.0000 0.0000 -20.6098 4.6965 10.7722 0.0162 -0.8206 -2.2553 0.2212 6.6600 -13.7265 0.1139 -2.1758 -5.9917 0.0000 0.0000 0.0000 10.8129 -9.3269 8.1852 -0.0144 -0.7750 2.1299 -0.8907 2.0915 -17.2509 -0.7124 -5.3940 15.0357 -6.6854 1.8349 4.7770 -0.8639 2.0528 -0.3346 2.6945 1.1354 -3.2335 4.9614 2.4611 -21.4383 -2.4171 2.6159 23.5939 -1.2860 1.3908 11.3257 -0.0000 -0.0000 0.0000 -87.3411 2.0816 37.7011 12.3518 -20.3301 -2.2230 -0.0000 -0.0000 13.0093 14.1978 -21.3236 -5.2564 -7.1250 0.0000 -0.0000 -9.1742 8.2749 7.8625 -0.0000 -0.0000 0.0000 87.6260 -6.6118 35.2000 -16.6461 26.3889 -3.9287 0.0000 0.0000 3.7061 -9.7212 -32.9240 5.3197 7.1250 -0.0000 -0.0000 26.6778 -61.2775 -11.0143
-28.2246 17.0554 1.2414 54.5505 85.7174 53.3742 0.0000 0.0000 0.0000 -20.5670 4.9183 10.6796 0.0156 -0.8073 -2.2188 0.2280 6.4364 -13.6081 0.1068 -2.1072 -5.8020 0.0000 0.0000 0.0000 10.7546 -9.4241 8.1618 -0.0144 -0.7737 2.1264 -0.8864 2.2109 -17.1820 -0.6962 -5.3337 14.8629 -6.6521 1.8540 4.7632 -0.9076 2.0802 -0.3407 2.6286 1.1484 -3.2318 5.0115 2.4572 -21.4391 -2.4400 2.6008 23.6196 -1.3053 1.3861 11.3361 0.0000 0.0000 0.0000 -87.2770 2.0694 37.7945 12.3203 -20.2833 -2.2121 -0.0000 -0.0000 12.9336 14.9791 -21.2377 -5.5358 -7.1250 0.0000 -0.0000 -8.6753 8.2686 7.4254 0.0000 0.0000 0.0000 87.6828 -6.6409 35.1863 -16.6681 26.4181 -3.9385 0.0000 0.0000 3.6586 -9.8181 -33.0540 5.3922 7.1250 -0.0000 -0.0000 26.7007 -61.4155 -11.1123
-28.2180 17.0536 1.2383 56.5763 85.5515 55.3323 0.0000 0.0000 0.0000 -20.8882 4.9667 10.7935 0.0165 -0.8285 -2.2770 0.2232 6.4418 -13.5374 0.1121 -2.1588 -5.9447 0.0000 0.0000 0.0000 10.3204 -9.8334 8.1501 -0.0146 -0.7811 2.1468 -0.8726 2.5040 -16.9839 -0.6490 -5.1533 14.3462 -6.7910 1.8816 4.7606 -1.0243 2.1095 -0.3123 2.5834 1.1639 -3.2045 5.0893 2.4513 -21.4804 -2.4611 2.5704 23.6559 -1.3308 1.3770 11.3581 0.0000 -0.0000 0.0000 -87.1868 2.0485 37.6365 12.1170 -19.9799 -2.1421 -0.0000 -0.0000 13.5161 15.1019 -22.3960 -5.8703 -7.1250 0.0000 -0.0000 -8.6521 7.0831 7.6086 0.0000 -0.0000 0.0000 87.7874 -6.6498 35.0596 -16.6797 26.4337 -3.9437 0.0000 0.0000 3.5999 -9.8237 -33.1020 5.4022 7.1250 -0.0000 -0.0000 26.7406 -61.4590 -11.1580
-28.2035 17.0488 1.2294 62.8413 84.9032 61.4887 0.0000 0.0000 0.0000 -22.0049 5.0636 10.9458 0.0174 -0.8515 -2.3402 0.2211 6.4090 -13.4724 0.1498 -2.4940 -6.8730 0.0000 0.0000 0.0000 8.9850 -10.6112 8.1196 -0.0156 -0.8055 2.2139 -0.8450 3.1322 -16.5948 -0.6797 -5.2715 14.6847 -7.5428 1.8431 4.9246 -1.2605 1.9920 -0.4409 2.7587 1.1292 -3.4387 5.1964 2.4877 -21.3130 -2.5296 2.6209 23.7215 -1.3667 1.4047 11.3557 0.0000 0.0000 0.0000 -87.2018 2.3501 36.5993 11.6386 -19.2604 -1.9814 -0.0000 -0.0000 15.4516 17.9477 -24.7451 -7.7213 -7.1250 0.0000 -0.0000 -7.0431 4.2976 6.5461 0.0000 0.0000 0.0000 87.7854 -7.0130 35.1133 -16.7209 26.4883 -3.9620 0.0000 0.0000 3.5944 -9.8221 -32.9572 5.3804 7.1250 -0.0000 -0.0000 26.6044 -61.3313 -11.0156
-28.1954 17.0466 1.2236 66.6577 84.3257 65.2518 0.0000 0.0000 0.0000 -22.8752 5.2039 10.9471 0.0171 -0.8454 -2.3235 0.2221 6.2752 -13.3542 0.1730 -2.6796 -7.3879 0.0000 0.0000 0.0000 7.9425 -11.1461 8.0409 -0.0170 -0.8429 2.3168 -0.8258 3.6020 -16.3328 -0.6835 -5.2860 14.7262 -8.1781 1.8263 4.9190 -1.4507 1.9328 -0.4350 2.9195 1.1121 -3.4392 5.1904 2.4891 -21.2221 -2.5088 2.6212 23.6243 -1.3582 1.4064 11.3012 -0.0000 -0.0000 0.0000 -87.2054 2.4161 36.6347 11.6845 -19.3298 -1.9966 -0.0000 -0.0000 15.2503 16.3040 -24.6974 -6.9677 -7.1250 0.0000 -0.0000 -8.0462 4.5925 7.4515 -0.0000 -0.0000 0.0000 87.7922 -7.0835 35.0974 -16.7193 26.4862 -3.9613 0.0000 0.0000 3.6265 -9.8747 -32.8586 5.3954 7.1250 -0.0000 -0.0000 26.4567 -61.2573 -10.9028
-28.1941 17.0469 1.2232 67.2150 84.1910 65.8058 0.0000 0.0000 0.0000 -22.9304 5.6066 10.6761 0.0141 -0.7672 -2.1084 0.2348 5.8273 -13.1240 0.1266 -2.2940 -6.3189 0.0000 0.0000 0.0000 7.7023 -11.3293 7.9851 -0.0175 -0.8535 2.3458 -0.8222 3.7496 -16.2784 -0.6433 -5.1311 14.2829 -8.3179 1.8392 4.9223 -1.4956 1.9408 -0.4427 2.9495 1.1196 -3.4535 5.1082 2.4531 -21.2075 -2.4093 2.5709 23.6124 -1.3160 1.3890 11.2890 0.0000 -0.0000 0.0000 -87.1903 2.4400 36.6636 11.6631 -19.2974 -1.9895 -0.0000 -0.0000 15.3401 17.5135 -24.7567 -7.5277 -7.1250 0.0000 -0.0000 -7.3100 4.3525 6.7907 0.0000 -0.0000 0.0000 87.7943 -7.0950 35.0769 -16.6967 26.4561 -3.9512 0.0000 0.0000 3.6265 -9.8472 -32.8984 5.3859 7.1250 -0.0000 -0.0000 26.5228 -61.2856 -10.9502
